<svg width="21" height="21" viewBox="0 0 21 21" fill="none" xmlns="http://www.w3.org/2000/svg">
<path d="M9.68376 0.335707L2.09975 7.91953C1.88326 8.13601 1.76443 8.42455 1.76443 8.7322C1.76443 9.0402 1.88343 9.32856 2.09975 9.54505L2.78848 10.2336C3.00462 10.4499 3.29332 10.5691 3.60115 10.5691C3.90881 10.5691 4.20724 10.4499 4.42339 10.2336L8.85743 5.80931V19.8655C8.85743 20.4992 9.35357 21 9.98749 21H10.9612C11.5951 21 12.1413 20.4992 12.1413 19.8655L12.1413 5.75911L16.6 10.2334C16.8165 10.4497 17.0974 10.5689 17.4052 10.5689C17.7127 10.5689 17.9976 10.4497 18.214 10.2334L18.9005 9.54488C19.117 9.32839 19.2349 9.04003 19.2349 8.73203C19.2349 8.42438 19.1154 8.13584 18.8989 7.91936L11.3151 0.335537C11.0979 0.118538 10.808 -0.000801086 10.4999 5.34058e-05C10.1907 -0.000629425 9.90059 0.118538 9.68376 0.335707Z" fill="white"/>
</svg>
