<svg width="100" height="100" viewBox="0 0 100 100" fill="none" xmlns="http://www.w3.org/2000/svg">
<path d="M23.1531 75.883L13.9 91.3158C13.5578 91.8861 13.3766 92.5392 13.3766 93.2048C13.3766 95.2314 15.0203 96.8751 17.0469 96.8751H22.6485C23.7063 96.8751 24.7141 96.4189 25.411 95.622L35.9375 83.5861L36.1625 83.2251C31.4 81.4892 27.0985 78.8173 23.4078 75.4861L23.1531 75.883Z" fill="#F2C351"/>
<path d="M30.1313 80.3625C27.7235 78.9641 25.4625 77.3407 23.4078 75.4875L23.1532 75.8844L13.9 91.3172C13.5578 91.8875 13.3766 92.5407 13.3766 93.2063C13.3766 95.1 14.8157 96.6407 16.6578 96.8375C23.1188 93.4219 28.036 87.5 30.1313 80.3625Z" fill="#F7D881"/>
<path d="M72.9172 17.7078L79.6875 10.9375L89.0625 20.3125L81.836 27.5391L72.9172 17.7078Z" fill="#0047FF"/>
<path d="M79.6875 10.9375L72.9172 17.7078L75.875 20.9688C79.2516 20.0281 82.3297 18.3844 84.9329 16.1828L79.6875 10.9375Z" fill="#8892A0"/>
<path d="M27.2422 17.8672L20.3125 10.9375L10.9375 20.3125L18.4031 27.7781L27.2422 17.8672Z" fill="#0047FF"/>
<path d="M17.8406 27.2159C18.4281 25.2768 18.75 23.2237 18.75 21.094C18.75 18.5315 18.2703 16.0878 17.4344 13.8159L10.9375 20.3128L17.8406 27.2159Z" fill="#8892A0"/>
<path d="M50 85.9375C71.5736 85.9375 89.0625 68.4486 89.0625 46.875C89.0625 25.3014 71.5736 7.8125 50 7.8125C28.4264 7.8125 10.9375 25.3014 10.9375 46.875C10.9375 68.4486 28.4264 85.9375 50 85.9375Z" fill="#0047FF"/>
<path d="M76.161 75.8828L85.4141 91.3156C85.7563 91.8859 85.9375 92.5391 85.9375 93.2047C85.9375 95.2313 84.2938 96.875 82.2672 96.875H76.6657C75.6078 96.875 74.6 96.4188 73.9031 95.6219L63.3766 83.5875C68.1406 81.8516 72.4703 79.2141 76.161 75.8828Z" fill="#F2C351"/>
<path d="M50 78.125C67.2589 78.125 81.25 64.1339 81.25 46.875C81.25 29.6161 67.2589 15.625 50 15.625C32.7411 15.625 18.75 29.6161 18.75 46.875C18.75 64.1339 32.7411 78.125 50 78.125Z" fill="#E7E4DD"/>
<path d="M6.78594 24.4641C4.52344 22.2016 3.125 19.0766 3.125 15.625C3.125 8.72187 8.72187 3.125 15.625 3.125C19.0766 3.125 22.2016 4.52344 24.4641 6.78594L6.78594 24.4641Z" fill="#F2C351"/>
<path d="M93.214 24.4641C95.4765 22.2016 96.875 19.0766 96.875 15.625C96.875 8.72187 91.2781 3.125 84.375 3.125C80.9234 3.125 77.7984 4.52344 75.5359 6.78594L93.214 24.4641Z" fill="#F2C351"/>
<path d="M51.5609 15.7031C51.0406 15.6781 50.5266 15.625 50 15.625C49.4719 15.625 48.9578 15.6781 48.4375 15.7047V23.4359H51.5625V15.7031H51.5609Z" fill="#0047FF"/>
<path d="M48.4376 78.0452C48.9579 78.0717 49.472 78.1249 50.0001 78.1249C50.5267 78.1249 51.0407 78.0717 51.561 78.0467V70.3108H48.436V78.0452H48.4376Z" fill="#0047FF"/>
<path d="M18.8281 48.4345H26.5609V45.311H18.8297C18.8031 45.8329 18.75 46.347 18.75 46.8751C18.75 47.4017 18.8031 47.9142 18.8281 48.4345Z" fill="#0047FF"/>
<path d="M67.6766 62.3406L65.4657 64.5515L70.9376 70.0234C71.711 69.3234 72.4469 68.5859 73.1485 67.8125L67.6766 62.3406Z" fill="#0047FF"/>
<path d="M26.8516 25.9343L32.3219 31.4046L34.5328 29.1937L29.0641 23.7234C28.2875 24.425 27.5516 25.1609 26.8516 25.9343Z" fill="#0047FF"/>
<path d="M70.9375 23.7251L65.4672 29.1954L67.6781 31.4063L73.15 25.936C72.4484 25.161 71.7125 24.4251 70.9375 23.7251Z" fill="#0047FF"/>
<path d="M26.85 67.8125C27.55 68.5859 28.2859 69.3218 29.0593 70.0218L34.5312 64.5515L32.3219 62.3406L26.85 67.8125Z" fill="#0047FF"/>
<path d="M48.5344 42.5781L46.875 35.9375L50 26.5625L53.125 35.9375L51.4656 42.5781" fill="#243242"/>
<path d="M54.1781 45.3859L65.625 43.75L78.125 46.875L65.625 50L54.1781 48.3641" fill="#243242"/>
<path d="M49.8773 51.4353L52.8148 50.3666L59.3085 68.2148L56.371 69.2836L49.8773 51.4353Z" fill="#E47C6E"/>
<path d="M50 42.1875C47.4109 42.1875 45.3125 44.2859 45.3125 46.875C45.3125 48.3891 46.0422 49.7203 47.1563 50.5781C49.4063 48.4781 50.9297 45.6141 51.3016 42.3937C50.8859 42.2734 50.4547 42.1875 50 42.1875Z" fill="#0047FF"/>
<path d="M46.875 35.9375L48.5344 42.5781H51.2734C51.3469 42.0125 51.3969 41.439 51.3969 40.8531C51.3969 37.5203 50.1625 34.4796 48.1391 32.1453L46.875 35.9375Z" fill="#4D5D7A"/>
<path d="M50 51.5625C52.5888 51.5625 54.6875 49.4638 54.6875 46.875C54.6875 44.2862 52.5888 42.1875 50 42.1875C47.4112 42.1875 45.3125 44.2862 45.3125 46.875C45.3125 49.4638 47.4112 51.5625 50 51.5625Z" fill="#8892A0"/>
<path d="M10.3734 4.29395C6.09688 6.27832 3.125 10.6002 3.125 15.6252C3.125 19.0768 4.52344 22.2018 6.78594 24.4643L17.4344 13.8174C16.0281 9.99863 13.5578 6.70801 10.3734 4.29395Z" fill="#F7D881"/>
<path d="M92.0937 5.80469C89.9671 4.13125 87.2906 3.125 84.375 3.125C80.9234 3.125 77.7984 4.52344 75.5359 6.78594L84.9328 16.1828C88.1671 13.45 90.6531 9.87813 92.0937 5.80469Z" fill="#F7D881"/>
<path d="M50 14.0625C31.9062 14.0625 17.1875 28.7812 17.1875 46.875C17.1875 64.9672 31.9062 79.6859 50 79.6859C68.0922 79.6859 82.8125 64.9672 82.8125 46.875C82.8109 28.7812 68.0922 14.0625 50 14.0625ZM72.0344 66.6984L67.6766 62.3422L65.4656 64.5531L69.8219 68.9094C64.9234 73.3219 58.5656 76.1156 51.5594 76.4828V70.3125H48.4344V76.4828C41.4281 76.1156 35.0703 73.3219 30.1719 68.9094L34.5281 64.5531L32.3172 62.3422L27.9594 66.6984C23.5469 61.8 20.7531 55.4422 20.3875 48.4344H26.5563V45.3109H20.3875C20.7547 38.3047 23.5484 31.9484 27.9609 27.05L32.3172 31.4062L34.5281 29.1953L30.1719 24.8406C35.0703 20.4297 41.4281 17.6359 48.4328 17.2687V23.4359H51.5578V17.2687C58.5641 17.6359 64.9219 20.4297 69.8203 24.8406L65.4641 29.1953L67.675 31.4062L72.0312 27.05C76.7703 32.3125 79.6828 39.25 79.6828 46.8734C79.6828 46.1562 79.1953 45.5312 78.5 45.3578L66 42.2328C65.8031 42.1844 65.6016 42.1734 65.4 42.2016L55.3187 43.6422C54.8141 42.8156 54.1344 42.1156 53.3156 41.5984L54.6359 36.3141C54.7078 36.025 54.6969 35.7219 54.6031 35.4406L51.4781 26.0656C51.2656 25.4281 50.6687 24.9969 49.9969 24.9969C49.3234 24.9969 48.7266 25.4266 48.5141 26.0656L45.3891 35.4406C45.2937 35.7219 45.2828 36.025 45.3563 36.3141L46.6766 41.5984C44.925 42.7062 43.75 44.6484 43.75 46.8734C43.75 50.3187 46.5531 53.1219 50 53.1219C50.1547 53.1219 50.3 53.0875 50.4516 53.0766L56.3438 69.2812L59.2797 68.2141L53.4172 52.0937C54.1938 51.5828 54.8375 50.9 55.3219 50.1047L65.4031 51.5453C65.4766 51.5562 65.55 51.5609 65.625 51.5609C65.7531 51.5609 65.8797 51.5453 66.0031 51.5156L78.5031 48.3906C79.1984 48.2172 79.6859 47.5906 79.6859 46.8766V46.8781C79.6859 54.4984 76.7734 61.4359 72.0344 66.6984ZM56.2281 46.6687L65.5422 45.3391L71.6812 46.8734L65.5422 48.4062L56.2281 47.0766C56.2297 47.0078 56.2484 46.9422 56.2484 46.8734C56.2484 46.8031 56.2297 46.7375 56.2281 46.6687ZM50 49.9969C48.2766 49.9969 46.875 48.5969 46.875 46.8734C46.875 45.1484 48.2766 43.7484 50 43.7484C51.7234 43.7484 53.125 45.1484 53.125 46.8734C53.1234 48.5969 51.7219 49.9969 50 49.9969ZM48.5 35.9969L50 31.5016L51.4984 35.9969L50.3344 40.6578C50.2219 40.6516 50.1156 40.6234 50 40.6234C49.8859 40.6234 49.7781 40.6516 49.6656 40.6578L48.5 35.9969Z" fill="black"/>
<path d="M84.3734 1.56104C80.6156 1.5626 77.0844 3.0251 74.4297 5.68135C73.8203 6.29072 73.8203 7.27979 74.4297 7.89072L77.475 10.936L74.1672 14.2438C67.4094 9.2251 59.0469 6.2501 50 6.2501C40.9531 6.2501 32.5891 9.2251 25.8312 14.2438L22.5234 10.936L25.5688 7.89072C26.1781 7.27979 26.1781 6.29072 25.5688 5.68135C22.9141 3.0251 19.3844 1.56104 15.6312 1.56104C15.6297 1.56104 15.6266 1.56104 15.625 1.56104C7.87031 1.56104 1.5625 7.87041 1.5625 15.6235C1.5625 19.3813 3.025 22.9126 5.68125 25.5673C5.98594 25.872 6.38594 26.0235 6.78594 26.0235C7.18594 26.0235 7.58594 25.872 7.89063 25.5673L10.9375 22.522L14.8906 26.4751C11.3906 32.4751 9.375 39.4423 9.375 46.8751C9.375 58.3626 14.175 68.7439 21.8672 76.1392L13.2453 90.5095C12.7578 91.322 12.5 92.2548 12.5 93.2032C12.5 96.0876 14.8469 98.4345 17.7344 98.4345H23.3344C24.8453 98.4345 26.2812 97.7845 27.2734 96.6485L37.1141 85.4017L37.0938 85.3845C41.1516 86.7485 45.4891 87.4985 50.0016 87.4985C54.5125 87.4985 58.8484 86.7485 62.9062 85.386L62.8875 85.4032L72.7281 96.6501C73.7203 97.7845 75.1562 98.4376 76.6656 98.4376H82.2656C85.15 98.4376 87.4984 96.0892 87.5 93.2032C87.5 92.2548 87.2406 91.322 86.7531 90.5095L78.1313 76.1392C85.8234 68.7439 90.625 58.3626 90.625 46.8751C90.625 39.4423 88.6094 32.4751 85.1094 26.4751L89.0625 22.522L92.1094 25.5673C92.4141 25.872 92.8141 26.0235 93.2141 26.0235C93.6141 26.0235 94.0141 25.872 94.3187 25.5673C96.975 22.911 98.4375 19.3798 98.4375 15.6235C98.4359 7.86885 92.1266 1.56104 84.3734 1.56104ZM6.8625 22.1735C5.45 20.2938 4.6875 18.0188 4.6875 15.6235C4.6875 9.59385 9.59375 4.68604 15.625 4.68604H15.6297C18.0219 4.68604 20.2953 5.4501 22.175 6.8626L6.8625 22.1735ZM13.1469 20.311L20.3125 13.147L23.3859 16.2204C20.8266 18.4454 18.5469 20.9813 16.6094 23.7735L13.1469 20.311ZM24.9203 94.5907C24.5203 95.0485 23.9422 95.3095 23.3328 95.3095H17.7328C16.5688 95.3095 15.6234 94.3657 15.6234 93.2032C15.6234 92.8204 15.7266 92.4454 15.9234 92.1173L24.2359 78.261C27.175 80.6782 30.4578 82.6876 34 84.211L24.9203 94.5907ZM84.075 92.1189C84.2703 92.4454 84.375 92.8204 84.375 93.2017C84.375 94.3657 83.4281 95.3126 82.2656 95.3126H76.6656C76.0578 95.3126 75.4797 95.0485 75.0781 94.5907L65.9953 84.211C69.5359 82.6876 72.8203 80.6782 75.7594 78.2626L84.075 92.1189ZM50 84.3735C29.3219 84.3735 12.5 67.5517 12.5 46.8751C12.5 26.197 29.3219 9.3751 50 9.3751C70.6766 9.3751 87.5 26.197 87.5 46.8751C87.5 67.5517 70.6766 84.3735 50 84.3735ZM83.3891 23.7735C81.4516 20.9813 79.1719 18.4454 76.6125 16.2204L79.6875 13.147L86.8516 20.311L83.3891 23.7735ZM93.1359 22.1735L77.8234 6.86103C79.7031 5.4501 81.9797 4.68604 84.375 4.68604C90.4047 4.68604 95.3125 9.59385 95.3125 15.6235C95.3125 18.0173 94.5484 20.2938 93.1359 22.1735Z" fill="black"/>
</svg>
