<svg width="100" height="100" viewBox="0 0 100 100" fill="none" xmlns="http://www.w3.org/2000/svg">
<path d="M25 54.6875C25.8629 54.6875 26.5625 53.9879 26.5625 53.125C26.5625 52.2621 25.8629 51.5625 25 51.5625C24.1371 51.5625 23.4375 52.2621 23.4375 53.125C23.4375 53.9879 24.1371 54.6875 25 54.6875Z" fill="#0047FF"/>
<path d="M32.8125 62.5C33.6754 62.5 34.375 61.8004 34.375 60.9375C34.375 60.0746 33.6754 59.375 32.8125 59.375C31.9496 59.375 31.25 60.0746 31.25 60.9375C31.25 61.8004 31.9496 62.5 32.8125 62.5Z" fill="#0047FF"/>
<path d="M35.4902 42.1875L44.1973 46.875H25V42.1875H26.5625H35.4902Z" fill="#0047FF"/>
<path d="M90.625 71.875V78.125H3.125V28.125H9.375V71.875H70.3125V60.9375L90.625 71.875Z" fill="#0047FF"/>
<path d="M87.5 46.875C87.5 54.6406 91.6973 60.9375 96.875 60.9375V71.875H70.3125V21.875H96.875V32.8125C91.6973 32.8125 87.5 39.1094 87.5 46.875Z" fill="#0047FF"/>
<path d="M25 54.6875C25.8629 54.6875 26.5625 53.9879 26.5625 53.125C26.5625 52.2621 25.8629 51.5625 25 51.5625C24.1371 51.5625 23.4375 52.2621 23.4375 53.125C23.4375 53.9879 24.1371 54.6875 25 54.6875Z" fill="#0047FF"/>
<path d="M32.8125 62.5C33.6754 62.5 34.375 61.8004 34.375 60.9375C34.375 60.0746 33.6754 59.375 32.8125 59.375C31.9496 59.375 31.25 60.0746 31.25 60.9375C31.25 61.8004 31.9496 62.5 32.8125 62.5Z" fill="#0047FF"/>
<path d="M26.5625 42.1875H25V46.875H44.1973H50V42.1875H35.4902H26.5625Z" fill="#0047FF"/>
<path d="M25 42.1875H50V46.875H25V42.1875Z" fill="#0047FF"/>
<path d="M25 54.6875C25.8629 54.6875 26.5625 53.9879 26.5625 53.125C26.5625 52.2621 25.8629 51.5625 25 51.5625C24.1371 51.5625 23.4375 52.2621 23.4375 53.125C23.4375 53.9879 24.1371 54.6875 25 54.6875Z" fill="#0047FF"/>
<path d="M32.8125 62.5C33.6754 62.5 34.375 61.8004 34.375 60.9375C34.375 60.0746 33.6754 59.375 32.8125 59.375C31.9496 59.375 31.25 60.0746 31.25 60.9375C31.25 61.8004 31.9496 62.5 32.8125 62.5Z" fill="#0047FF"/>
<path d="M96.875 34.375C97.2894 34.375 97.6868 34.2104 97.9799 33.9174C98.2729 33.6243 98.4375 33.2269 98.4375 32.8125V21.875C98.4375 21.4606 98.2729 21.0632 97.9799 20.7701C97.6868 20.4771 97.2894 20.3125 96.875 20.3125H9.375C8.9606 20.3125 8.56317 20.4771 8.27015 20.7701C7.97712 21.0632 7.8125 21.4606 7.8125 21.875V26.5625H3.125C2.7106 26.5625 2.31317 26.7271 2.02015 27.0201C1.72712 27.3132 1.5625 27.7106 1.5625 28.125V78.125C1.5625 78.5394 1.72712 78.9368 2.02015 79.2299C2.31317 79.5229 2.7106 79.6875 3.125 79.6875H90.625C91.0394 79.6875 91.4368 79.5229 91.7299 79.2299C92.0229 78.9368 92.1875 78.5394 92.1875 78.125V73.4375H96.875C97.2894 73.4375 97.6868 73.2729 97.9799 72.9799C98.2729 72.6868 98.4375 72.2894 98.4375 71.875V60.9375C98.4375 60.5231 98.2729 60.1257 97.9799 59.8326C97.6868 59.5396 97.2894 59.375 96.875 59.375C92.6406 59.375 89.0625 53.6504 89.0625 46.875C89.0625 40.0996 92.6406 34.375 96.875 34.375ZM10.9375 23.4375H64.0625V25C64.0625 25.4144 64.2271 25.8118 64.5201 26.1049C64.8132 26.3979 65.2106 26.5625 65.625 26.5625C66.0394 26.5625 66.4368 26.3979 66.7299 26.1049C67.0229 25.8118 67.1875 25.4144 67.1875 25V23.4375H68.75V70.3125H67.1875V67.1875C67.1875 66.7731 67.0229 66.3757 66.7299 66.0826C66.4368 65.7896 66.0394 65.625 65.625 65.625C65.2106 65.625 64.8132 65.7896 64.5201 66.0826C64.2271 66.3757 64.0625 66.7731 64.0625 67.1875V70.3125H10.9375V23.4375ZM89.0625 76.5625H4.6875V29.6875H7.8125V71.875C7.8125 72.2894 7.97712 72.6868 8.27015 72.9799C8.56317 73.2729 8.9606 73.4375 9.375 73.4375H89.0625V76.5625ZM88.9453 36.0645C87.0059 38.9746 85.9375 42.8145 85.9375 46.875C85.9375 50.9355 87.0059 54.7754 88.9453 57.6855C90.6562 60.25 92.877 61.8633 95.3125 62.3477V70.3125H71.875V23.4375H95.3125V31.4023C92.877 31.8867 90.6562 33.5 88.9453 36.0645Z" fill="#004FAC"/>
<path d="M50 40.625H49.8984C49.5477 37.8737 48.2933 35.3167 46.332 33.3555C44.3708 31.3942 41.8138 30.1398 39.0625 29.7891V29.6875C39.0625 29.2731 38.8979 28.8757 38.6049 28.5826C38.3118 28.2896 37.9144 28.125 37.5 28.125C37.0856 28.125 36.6882 28.2896 36.3951 28.5826C36.1021 28.8757 35.9375 29.2731 35.9375 29.6875V29.7891C33.1862 30.1398 30.6292 31.3942 28.668 33.3555C26.7067 35.3167 25.4523 37.8737 25.1016 40.625H25C24.5856 40.625 24.1882 40.7896 23.8951 41.0826C23.6021 41.3757 23.4375 41.7731 23.4375 42.1875V46.875C23.4375 47.2894 23.6021 47.6868 23.8951 47.9799C24.1882 48.2729 24.5856 48.4375 25 48.4375H50C50.4144 48.4375 50.8118 48.2729 51.1049 47.9799C51.3979 47.6868 51.5625 47.2894 51.5625 46.875V42.1875C51.5625 41.7731 51.3979 41.3757 51.1049 41.0826C50.8118 40.7896 50.4144 40.625 50 40.625ZM37.5 32.8125C39.7145 32.8156 41.8566 33.6014 43.5478 35.0309C45.239 36.4605 46.3705 38.4419 46.7422 40.625H28.2578C28.6295 38.4419 29.761 36.4605 31.4522 35.0309C33.1434 33.6014 35.2855 32.8156 37.5 32.8125ZM48.4375 45.3125H26.5625V43.75H48.4375V45.3125Z" fill="#004FAC"/>
<path d="M33.708 52.006C33.5611 51.8628 33.3874 51.7499 33.1969 51.6738C33.0063 51.5976 32.8026 51.5598 32.5975 51.5624C32.3923 51.565 32.1896 51.608 32.0011 51.6889C31.8125 51.7698 31.6417 51.8871 31.4985 52.034L23.8813 59.8465C23.592 60.1432 23.4324 60.5427 23.4376 60.957C23.4429 61.3714 23.6125 61.7667 23.9092 62.056C24.2059 62.3453 24.6054 62.5049 25.0198 62.4997C25.4342 62.4945 25.8295 62.3248 26.1188 62.0281L33.736 54.2156C33.8792 54.0687 33.9921 53.895 34.0682 53.7045C34.1444 53.5139 34.1822 53.3102 34.1796 53.105C34.177 52.8999 34.134 52.6972 34.0531 52.5086C33.9722 52.3201 33.855 52.1493 33.708 52.006Z" fill="#004FAC"/>
<path d="M25 54.6875C25.8629 54.6875 26.5625 53.9879 26.5625 53.125C26.5625 52.2621 25.8629 51.5625 25 51.5625C24.1371 51.5625 23.4375 52.2621 23.4375 53.125C23.4375 53.9879 24.1371 54.6875 25 54.6875Z" fill="#004FAC"/>
<path d="M32.8125 62.5C33.6754 62.5 34.375 61.8004 34.375 60.9375C34.375 60.0746 33.6754 59.375 32.8125 59.375C31.9496 59.375 31.25 60.0746 31.25 60.9375C31.25 61.8004 31.9496 62.5 32.8125 62.5Z" fill="#004FAC"/>
<path d="M50 51.5625H39.0625C38.6481 51.5625 38.2507 51.7271 37.9576 52.0201C37.6646 52.3132 37.5 52.7106 37.5 53.125C37.5 53.5394 37.6646 53.9368 37.9576 54.2299C38.2507 54.5229 38.6481 54.6875 39.0625 54.6875H50C50.4144 54.6875 50.8118 54.5229 51.1049 54.2299C51.3979 53.9368 51.5625 53.5394 51.5625 53.125C51.5625 52.7106 51.3979 52.3132 51.1049 52.0201C50.8118 51.7271 50.4144 51.5625 50 51.5625Z" fill="#004FAC"/>
<path d="M50 56.25H39.0625C38.6481 56.25 38.2507 56.4146 37.9576 56.7076C37.6646 57.0007 37.5 57.3981 37.5 57.8125C37.5 58.2269 37.6646 58.6243 37.9576 58.9174C38.2507 59.2104 38.6481 59.375 39.0625 59.375H50C50.4144 59.375 50.8118 59.2104 51.1049 58.9174C51.3979 58.6243 51.5625 58.2269 51.5625 57.8125C51.5625 57.3981 51.3979 57.0007 51.1049 56.7076C50.8118 56.4146 50.4144 56.25 50 56.25Z" fill="#004FAC"/>
<path d="M50 60.9375H39.0625C38.6481 60.9375 38.2507 61.1021 37.9576 61.3951C37.6646 61.6882 37.5 62.0856 37.5 62.5C37.5 62.9144 37.6646 63.3118 37.9576 63.6049C38.2507 63.8979 38.6481 64.0625 39.0625 64.0625H50C50.4144 64.0625 50.8118 63.8979 51.1049 63.6049C51.3979 63.3118 51.5625 62.9144 51.5625 62.5C51.5625 62.0856 51.3979 61.6882 51.1049 61.3951C50.8118 61.1021 50.4144 60.9375 50 60.9375Z" fill="#004FAC"/>
<path d="M65.625 64.0625C66.0394 64.0625 66.4368 63.8979 66.7299 63.6049C67.0229 63.3118 67.1875 62.9144 67.1875 62.5V60.9375C67.1875 60.5231 67.0229 60.1257 66.7299 59.8326C66.4368 59.5396 66.0394 59.375 65.625 59.375C65.2106 59.375 64.8132 59.5396 64.5201 59.8326C64.2271 60.1257 64.0625 60.5231 64.0625 60.9375V62.5C64.0625 62.9144 64.2271 63.3118 64.5201 63.6049C64.8132 63.8979 65.2106 64.0625 65.625 64.0625Z" fill="#004FAC"/>
<path d="M65.625 57.8125C66.0394 57.8125 66.4368 57.6479 66.7299 57.3549C67.0229 57.0618 67.1875 56.6644 67.1875 56.25V54.6875C67.1875 54.2731 67.0229 53.8757 66.7299 53.5826C66.4368 53.2896 66.0394 53.125 65.625 53.125C65.2106 53.125 64.8132 53.2896 64.5201 53.5826C64.2271 53.8757 64.0625 54.2731 64.0625 54.6875V56.25C64.0625 56.6644 64.2271 57.0618 64.5201 57.3549C64.8132 57.6479 65.2106 57.8125 65.625 57.8125Z" fill="#004FAC"/>
<path d="M65.625 51.5625C66.0394 51.5625 66.4368 51.3979 66.7299 51.1049C67.0229 50.8118 67.1875 50.4144 67.1875 50V48.4375C67.1875 48.0231 67.0229 47.6257 66.7299 47.3326C66.4368 47.0396 66.0394 46.875 65.625 46.875C65.2106 46.875 64.8132 47.0396 64.5201 47.3326C64.2271 47.6257 64.0625 48.0231 64.0625 48.4375V50C64.0625 50.4144 64.2271 50.8118 64.5201 51.1049C64.8132 51.3979 65.2106 51.5625 65.625 51.5625Z" fill="#004FAC"/>
<path d="M65.625 45.3125C66.0394 45.3125 66.4368 45.1479 66.7299 44.8549C67.0229 44.5618 67.1875 44.1644 67.1875 43.75V42.1875C67.1875 41.7731 67.0229 41.3757 66.7299 41.0826C66.4368 40.7896 66.0394 40.625 65.625 40.625C65.2106 40.625 64.8132 40.7896 64.5201 41.0826C64.2271 41.3757 64.0625 41.7731 64.0625 42.1875V43.75C64.0625 44.1644 64.2271 44.5618 64.5201 44.8549C64.8132 45.1479 65.2106 45.3125 65.625 45.3125Z" fill="#004FAC"/>
<path d="M65.625 39.0625C66.0394 39.0625 66.4368 38.8979 66.7299 38.6049C67.0229 38.3118 67.1875 37.9144 67.1875 37.5V35.9375C67.1875 35.5231 67.0229 35.1257 66.7299 34.8326C66.4368 34.5396 66.0394 34.375 65.625 34.375C65.2106 34.375 64.8132 34.5396 64.5201 34.8326C64.2271 35.1257 64.0625 35.5231 64.0625 35.9375V37.5C64.0625 37.9144 64.2271 38.3118 64.5201 38.6049C64.8132 38.8979 65.2106 39.0625 65.625 39.0625Z" fill="#004FAC"/>
<path d="M65.625 32.8125C66.0394 32.8125 66.4368 32.6479 66.7299 32.3549C67.0229 32.0618 67.1875 31.6644 67.1875 31.25V29.6875C67.1875 29.2731 67.0229 28.8757 66.7299 28.5826C66.4368 28.2896 66.0394 28.125 65.625 28.125C65.2106 28.125 64.8132 28.2896 64.5201 28.5826C64.2271 28.8757 64.0625 29.2731 64.0625 29.6875V31.25C64.0625 31.6644 64.2271 32.0618 64.5201 32.3549C64.8132 32.6479 65.2106 32.8125 65.625 32.8125Z" fill="#004FAC"/>
</svg>
