<svg width="36" height="36" viewBox="0 0 36 36" fill="none" xmlns="http://www.w3.org/2000/svg">
<g clip-path="url(#clip0)">
<path d="M34.5937 16.5937H4.81232L9.74572 11.6842C10.2962 11.1364 10.2983 10.246 9.75043 9.69553C9.20256 9.14498 8.31212 9.14294 7.76164 9.69075L0.413707 17.0032C0.413215 17.0037 0.412863 17.0042 0.412442 17.0046C-0.136629 17.5525 -0.138386 18.4457 0.412301 18.9954C0.412793 18.9958 0.413145 18.9963 0.413567 18.9967L7.7615 26.3092C8.31191 26.857 9.20235 26.8551 9.75029 26.3045C10.2982 25.754 10.2961 24.8636 9.74558 24.3157L4.81232 19.4062H34.5937C35.3704 19.4062 36 18.7767 36 18C36 17.2233 35.3704 16.5937 34.5937 16.5937Z" fill="white"/>
</g>
<defs>
<clipPath id="clip0">
<rect width="36" height="36" fill="white"/>
</clipPath>
</defs>
</svg>
