<svg width="36" height="36" viewBox="0 0 36 36" fill="none" xmlns="http://www.w3.org/2000/svg">
<path d="M33.3734 5.22204C31.5978 3.20731 29.1345 2.09778 26.4375 2.09778C22.6443 2.09778 20.2428 4.36325 18.8961 6.26379C18.5467 6.75697 18.2495 7.25147 18 7.7168C17.7505 7.25147 17.4533 6.75697 17.1039 6.26379C15.7572 4.36325 13.3557 2.09778 9.5625 2.09778C6.86545 2.09778 4.4022 3.20738 2.62652 5.22211C0.932836 7.14404 0 9.71804 0 12.4699C0 15.4654 1.16951 18.2516 3.68051 21.2379C5.92467 23.907 9.15321 26.6581 12.8918 29.8439C14.2849 31.0311 15.7255 32.2587 17.2593 33.6007L17.3053 33.641C17.5042 33.8151 17.7521 33.9021 18 33.9021C18.2479 33.9021 18.4958 33.815 18.6947 33.641L18.7407 33.6007C20.2745 32.2587 21.7151 31.0312 23.1084 29.8438C26.8468 26.6582 30.0753 23.907 32.3195 21.2379C34.8305 18.2515 36 15.4654 36 12.4699C36 9.71804 35.0672 7.14404 33.3734 5.22204ZM21.7401 28.2384C20.5392 29.2617 19.3032 30.315 18 31.4479C16.6968 30.3151 15.4608 29.2618 14.2597 28.2383C6.94301 22.0035 2.10938 17.8845 2.10938 12.4699C2.10938 10.2319 2.85504 8.15316 4.20905 6.61676C5.57859 5.06293 7.47977 4.20715 9.5625 4.20715C12.4544 4.20715 14.3238 5.98873 15.3827 7.48329C16.3325 8.82373 16.8282 10.175 16.9972 10.6937C17.1386 11.1279 17.5434 11.4217 18 11.4217C18.4566 11.4217 18.8614 11.1279 19.0028 10.6937C19.1718 10.175 19.6675 8.82373 20.6173 7.48322C21.6762 5.98873 23.5456 4.20715 26.4375 4.20715C28.5202 4.20715 30.4214 5.06293 31.7909 6.61676C33.145 8.15316 33.8906 10.2319 33.8906 12.4699C33.8906 17.8845 29.057 22.0035 21.7401 28.2384Z" fill="white"/>
</svg>
