<svg width="36" height="36" viewBox="0 0 36 36" fill="none" xmlns="http://www.w3.org/2000/svg">
<path d="M26.4375 2.10938C24.484 2.10938 22.693 2.72841 21.1144 3.94931C19.6009 5.1198 18.5932 6.61064 18 7.69472C17.4068 6.61057 16.3991 5.1198 14.8856 3.94931C13.307 2.72841 11.516 2.10938 9.5625 2.10938C4.11103 2.10938 0 6.56838 0 12.4815C0 18.8696 5.1288 23.2403 12.8931 29.8569C14.2116 30.9806 15.7061 32.2542 17.2595 33.6126C17.4642 33.7919 17.7272 33.8906 18 33.8906C18.2728 33.8906 18.5358 33.7919 18.7405 33.6127C20.294 32.2541 21.7884 30.9805 23.1077 29.8562C30.8712 23.2403 36 18.8696 36 12.4815C36 6.56838 31.889 2.10938 26.4375 2.10938Z" fill="white"/>
</svg>
