<svg width="100" height="100" viewBox="0 0 100 100" fill="none" xmlns="http://www.w3.org/2000/svg">
<path d="M89.0625 53.125L67.1875 76.5625V96.875H32.8125V76.5625L10.9375 53.125L18.75 46.875L42.1875 68.75V78.125C44.1875 76.125 46.9062 75 49.7344 75H50H50.2656C53.0937 75 55.8125 76.125 57.8125 78.125V68.75L81.25 46.875L89.0625 53.125Z" fill="#FCD770"/>
<path d="M57.8125 68.75V78.125C55.8125 76.125 53.0937 75 50.2656 75H50L57.8125 68.75Z" fill="#FFC729"/>
<path d="M50 75H49.7344C46.9062 75 44.1875 76.125 42.1875 78.125V68.75L50 75Z" fill="#FFC729"/>
<path d="M93.4375 45.3125C95.3437 45.3125 96.875 46.8438 96.875 48.75C96.875 50.3906 95.7187 51.7969 94.1094 52.1094L89.0625 53.125L81.25 46.875L81.875 45.0156C82.4375 43.3281 84.0156 42.1875 85.7969 42.1875C86.8906 42.1875 87.9375 42.625 88.7031 43.3906L90.625 45.3125H93.4375Z" fill="#F0D0B4"/>
<path d="M95.3125 20.3125C96.3125 21.3125 96.875 22.6719 96.875 24.0781C96.875 25.6562 96.1719 27.1406 94.9687 28.1563L87.5 34.375L80.0313 28.1563C78.8281 27.1406 78.125 25.6562 78.125 24.0781C78.125 22.6719 78.6875 21.3125 79.6875 20.3125C80.6875 19.3125 82.0469 18.75 83.4531 18.75H83.7344C85.1406 18.75 86.5 19.3125 87.5 20.3125C88.5 19.3125 89.8594 18.75 91.2656 18.75H91.5469C92.9531 18.75 94.3125 19.3125 95.3125 20.3125Z" fill="#FF826E"/>
<path d="M73.4375 4.6875C74.4375 5.6875 75 7.04687 75 8.45312C75 10.0312 74.2969 11.5156 73.0937 12.5313L65.625 18.75L58.1563 12.5313C56.9531 11.5156 56.25 10.0312 56.25 8.45312C56.25 7.04687 56.8125 5.6875 57.8125 4.6875C58.8125 3.6875 60.1719 3.125 61.5781 3.125H61.8594C63.2656 3.125 64.625 3.6875 65.625 4.6875C66.625 3.6875 67.9844 3.125 69.3906 3.125H69.6719C71.0781 3.125 72.4375 3.6875 73.4375 4.6875Z" fill="#FF826E"/>
<path d="M62.5 42.2188C61.5469 43.1562 60.25 43.75 58.7812 43.75C57.1875 43.75 55.6719 43.0156 54.6719 41.7656L52.8125 39.4531C51.0312 37.2344 48.3438 35.9375 45.5 35.9375H45.3125C43.2812 35.9375 41.2812 36.5469 39.5938 37.6719C38.2813 38.5469 37.5 40 37.5 41.5781V41.9375C37.5 42.1094 37.5 42.2656 37.5156 42.4375L37.7187 45.3125H35.9375C34.6875 45.3125 33.5625 45.7969 32.7344 46.5781L31.7031 42.4531C31.4063 41.2344 31.25 40 31.25 38.7344C31.25 34.5156 32.9688 30.6875 35.7344 27.9219C38.5 25.1563 42.3281 23.4375 46.5469 23.4375H53.4531C61.8906 23.4375 68.75 30.2969 68.75 38.7344C68.75 40 68.5938 41.2344 68.2969 42.4531L67.2656 46.5781C66.4375 45.7969 65.3125 45.3125 64.0625 45.3125H62.2812L62.5 42.2188Z" fill="#656D78"/>
<path d="M67.2656 46.5781C68.1875 47.4375 68.75 48.6562 68.75 50C68.75 51.2969 68.2187 52.4687 67.375 53.3125C66.5312 54.1562 65.3594 54.6875 64.0625 54.6875H61.5C61.6094 54.1875 61.6875 53.6719 61.7187 53.1563L62.2813 45.3125H64.0625C65.3125 45.3125 66.4375 45.7969 67.2656 46.5781Z" fill="#F0D0B4"/>
<path d="M62.5 42.2188L62.2812 45.3125L61.7188 53.1562C61.6875 53.6719 61.6094 54.1875 61.5 54.6875C60.75 58.4062 58.25 61.4531 54.9219 62.9687C53.4219 63.6719 51.75 64.0625 50 64.0625C48.25 64.0625 46.5781 63.6719 45.0781 62.9687C43.9375 62.4531 42.9062 61.75 42 60.9062C40.25 59.2812 39 57.125 38.5 54.6875C38.3906 54.1875 38.3125 53.6719 38.2812 53.1562L37.7187 45.3125L37.5156 42.4375C37.5 42.2656 37.5 42.1094 37.5 41.9375V41.5781C37.5 40 38.2813 38.5469 39.5938 37.6719C41.2813 36.5469 43.2812 35.9375 45.3125 35.9375H45.5C48.3438 35.9375 51.0312 37.2344 52.8125 39.4531L54.6719 41.7656C55.6719 43.0156 57.1875 43.75 58.7812 43.75C60.25 43.75 61.5469 43.1563 62.5 42.2188Z" fill="#F0D0B4"/>
<path d="M54.9219 62.9844L57.8125 68.75L50 75L42.1875 68.75L45.0781 62.9844V62.9688C46.5781 63.6719 48.25 64.0625 50 64.0625C51.75 64.0625 53.4219 63.6719 54.9219 62.9688V62.9844Z" fill="#F0D0B4"/>
<path d="M54.6875 51.5625V53.125C54.6875 55.7188 52.5938 57.8125 50 57.8125C47.4062 57.8125 45.3125 55.7188 45.3125 53.125V51.5625H54.6875Z" fill="#FF826E"/>
<path d="M42.1875 4.6875C43.1875 5.6875 43.75 7.04687 43.75 8.45312C43.75 10.0312 43.0469 11.5156 41.8438 12.5313L34.375 18.75L26.9062 12.5313C25.7031 11.5156 25 10.0312 25 8.45312C25 7.04687 25.5625 5.6875 26.5625 4.6875C27.5625 3.6875 28.9219 3.125 30.3281 3.125H30.6094C32.0156 3.125 33.375 3.6875 34.375 4.6875C35.375 3.6875 36.7344 3.125 38.1406 3.125H38.4219C39.8281 3.125 41.1875 3.6875 42.1875 4.6875Z" fill="#FF826E"/>
<path d="M38.5 54.6875H35.9375C34.6406 54.6875 33.4687 54.1562 32.625 53.3125C31.7812 52.4687 31.25 51.2969 31.25 50C31.25 48.6562 31.8125 47.4375 32.7344 46.5781C33.5625 45.7969 34.6875 45.3125 35.9375 45.3125H37.7188L38.2813 53.1563C38.3125 53.6719 38.3906 54.1875 38.5 54.6875Z" fill="#F0D0B4"/>
<path d="M20.3125 20.3125C21.3125 21.3125 21.875 22.6719 21.875 24.0781C21.875 25.6562 21.1719 27.1406 19.9688 28.1563L12.5 34.375L5.03125 28.1563C3.82813 27.1406 3.125 25.6562 3.125 24.0781C3.125 22.6719 3.6875 21.3125 4.6875 20.3125C5.6875 19.3125 7.04687 18.75 8.45312 18.75H8.73438C10.1406 18.75 11.5 19.3125 12.5 20.3125C13.5 19.3125 14.8594 18.75 16.2656 18.75H16.5469C17.9531 18.75 19.3125 19.3125 20.3125 20.3125Z" fill="#FF826E"/>
<path d="M18.125 45.0156L18.75 46.875L10.9375 53.125L5.89062 52.1094C4.28125 51.7969 3.125 50.3906 3.125 48.75C3.125 47.7969 3.5 46.9375 4.125 46.3125C4.75 45.6875 5.60937 45.3125 6.5625 45.3125H9.375L11.2969 43.3906C12.0625 42.625 13.1094 42.1875 14.2031 42.1875C15.9844 42.1875 17.5625 43.3281 18.125 45.0156Z" fill="#F0D0B4"/>
<path d="M50 59.375C53.4469 59.375 56.25 56.5719 56.25 53.125V50H43.75V53.125C43.75 56.5719 46.5531 59.375 50 59.375ZM53.125 53.125C53.125 54.8484 51.7234 56.25 50 56.25C48.2766 56.25 46.875 54.8484 46.875 53.125H53.125Z" fill="black"/>
<path d="M34.375 20.7844L42.8406 13.7297C44.4109 12.4203 45.3125 10.4953 45.3125 8.45C45.3125 6.61562 44.5984 4.89062 43.2922 3.58281C41.9891 2.27969 40.2578 1.5625 38.4156 1.5625H38.1469C36.7875 1.5625 35.4875 1.95312 34.375 2.68281C33.2625 1.95312 31.9625 1.5625 30.6031 1.5625H30.3344C28.4922 1.5625 26.7609 2.27969 25.4484 3.59063C24.1516 4.88906 23.4375 6.61562 23.4375 8.45C23.4375 10.4969 24.3391 12.4203 25.9094 13.7297L34.375 20.7844ZM27.6672 5.79375C28.3797 5.07969 29.3281 4.6875 30.3344 4.6875H30.6031C31.6109 4.6875 32.5578 5.07969 33.2703 5.79375L34.375 6.89687L35.4797 5.79375C36.1922 5.07969 37.1406 4.6875 38.1469 4.6875H38.4156C39.4234 4.6875 40.3703 5.07969 41.0891 5.79844C41.7969 6.50781 42.1875 7.45 42.1875 8.45C42.1875 9.56562 41.6969 10.6156 40.8391 11.3297L34.375 16.7156L27.9109 11.3297C27.0531 10.6156 26.5625 9.56562 26.5625 8.45C26.5625 7.45 26.9531 6.50781 27.6672 5.79375Z" fill="black"/>
<path d="M12.5 36.4094L20.9656 29.3547C22.5359 28.0453 23.4375 26.1203 23.4375 24.075C23.4375 22.2406 22.7234 20.5156 21.4172 19.2078C20.1141 17.9047 18.3828 17.1875 16.5406 17.1875H16.2719C14.9125 17.1875 13.6125 17.5781 12.5 18.3078C11.3875 17.5781 10.0875 17.1875 8.72813 17.1875H8.45937C6.61719 17.1875 4.88594 17.9047 3.57344 19.2156C2.27656 20.5141 1.5625 22.2406 1.5625 24.075C1.5625 26.1219 2.46406 28.0453 4.03437 29.3547L12.5 36.4094ZM5.79219 21.4187C6.50469 20.7047 7.45312 20.3125 8.45937 20.3125H8.72813C9.73594 20.3125 10.6828 20.7047 11.3953 21.4187L12.5 22.5219L13.6047 21.4187C14.3172 20.7047 15.2656 20.3125 16.2719 20.3125H16.5406C17.5484 20.3125 18.4953 20.7047 19.2141 21.4234C19.9219 22.1328 20.3125 23.075 20.3125 24.075C20.3125 25.1906 19.8219 26.2406 18.9641 26.9547L12.5 32.3406L6.03594 26.9547C5.17812 26.2406 4.6875 25.1906 4.6875 24.075C4.6875 23.075 5.07812 22.1328 5.79219 21.4187Z" fill="black"/>
<path d="M65.625 20.7844L74.0906 13.7297C75.6609 12.4203 76.5625 10.4953 76.5625 8.45C76.5625 6.61562 75.8484 4.89062 74.5422 3.58281C73.2391 2.27969 71.5078 1.5625 69.6656 1.5625H69.3969C68.0375 1.5625 66.7375 1.95312 65.625 2.68281C64.5125 1.95312 63.2125 1.5625 61.8531 1.5625H61.5844C59.7422 1.5625 58.0109 2.27969 56.6984 3.59063C55.4016 4.88906 54.6875 6.61562 54.6875 8.45C54.6875 10.4969 55.5891 12.4203 57.1594 13.7297L65.625 20.7844ZM58.9172 5.79375C59.6297 5.07969 60.5781 4.6875 61.5844 4.6875H61.8531C62.8609 4.6875 63.8078 5.07969 64.5203 5.79375L65.625 6.89687L66.7297 5.79375C67.4422 5.07969 68.3906 4.6875 69.3969 4.6875H69.6656C70.6734 4.6875 71.6203 5.07969 72.3391 5.79844C73.0469 6.50781 73.4375 7.45 73.4375 8.45C73.4375 9.56562 72.9469 10.6156 72.0891 11.3297L65.625 16.7156L59.1609 11.3297C58.3031 10.6156 57.8125 9.56562 57.8125 8.45C57.8125 7.45 58.2031 6.50781 58.9172 5.79375Z" fill="black"/>
<path d="M79.0344 29.3547L87.5 36.4094L95.9656 29.3547C97.5359 28.0453 98.4375 26.1203 98.4375 24.075C98.4375 22.2406 97.7234 20.5156 96.4172 19.2078C95.1141 17.9047 93.3828 17.1875 91.5406 17.1875H91.2719C89.9125 17.1875 88.6125 17.5781 87.5 18.3078C86.3875 17.5781 85.0875 17.1875 83.7281 17.1875H83.4594C81.6172 17.1875 79.8859 17.9047 78.5734 19.2156C77.2766 20.5141 76.5625 22.2406 76.5625 24.075C76.5625 26.1203 77.4641 28.0453 79.0344 29.3547ZM80.7922 21.4187C81.5047 20.7047 82.4531 20.3125 83.4594 20.3125H83.7281C84.7359 20.3125 85.6828 20.7047 86.3953 21.4187L87.5 22.5219L88.6047 21.4187C89.3172 20.7047 90.2656 20.3125 91.2719 20.3125H91.5406C92.5484 20.3125 93.4953 20.7047 94.2141 21.4234C94.9219 22.1328 95.3125 23.075 95.3125 24.075C95.3125 25.1906 94.8219 26.2406 93.9641 26.9547L87.5 32.3406L81.0359 26.9547C80.1781 26.2406 79.6875 25.1906 79.6875 24.075C79.6875 23.075 80.0781 22.1328 80.7922 21.4187Z" fill="black"/>
<path d="M93.4406 43.75H91.2719L89.8141 42.2922C88.7391 41.2172 87.3094 40.625 85.7891 40.625C83.3359 40.625 81.1656 42.1891 80.3891 44.5172L79.8938 46.0031L58.275 66.1812L56.9938 63.6172C59.6797 61.9453 61.7344 59.3422 62.6984 56.2516H64.0625C67.5094 56.2516 70.3125 53.4484 70.3125 50.0016C70.3125 48.5562 69.7984 47.2406 68.9719 46.1797L69.8109 42.8313C70.1438 41.4906 70.3125 40.1156 70.3125 38.7406C70.3125 29.4406 62.7469 21.875 53.4469 21.875H46.5531C37.2531 21.875 29.6875 29.4406 29.6875 38.7406C29.6875 40.1141 29.8563 41.4906 30.1906 42.8313L31.0281 46.1766C30.2016 47.2391 29.6875 48.5547 29.6875 50C29.6875 53.4469 32.4906 56.25 35.9375 56.25H37.3031C38.2672 59.3406 40.3203 61.9453 43.0078 63.6156L41.7266 66.1797L20.1063 46.0031L19.6109 44.5156C18.8344 42.1891 16.6641 40.625 14.2109 40.625C12.6906 40.625 11.2609 41.2172 10.1859 42.2922L8.72813 43.75H6.55937C3.80469 43.75 1.5625 45.9922 1.5625 48.7469C1.5625 51.1203 3.25156 53.1812 5.57812 53.6469L10.1375 54.5578L31.25 77.1781V98.4375H68.75V77.1781L89.8625 54.5578L94.4219 53.6469C96.7484 53.1812 98.4375 51.1203 98.4375 48.7469C98.4375 45.9922 96.1953 43.75 93.4406 43.75ZM43.75 72.0016L46.2109 73.9703C45.3563 74.2266 44.5281 74.5562 43.75 74.9937V72.0016ZM64.0625 53.125H63.2844L63.7312 46.875H64.0625C65.7859 46.875 67.1875 48.2766 67.1875 50C67.1875 51.7234 65.7859 53.125 64.0625 53.125ZM32.8125 50C32.8125 48.2766 34.2141 46.875 35.9375 46.875H36.2687L36.7141 53.125H35.9375C34.2141 53.125 32.8125 51.7234 32.8125 50ZM35.9375 41.5703V41.9391C35.9375 42.1437 35.9453 42.3469 35.9609 42.5453L36.0469 43.75H35.9375C35.1641 43.75 34.4313 43.9094 33.7453 44.1672L33.2219 42.075C32.95 40.9828 32.8125 39.8609 32.8125 38.7406C32.8125 31.1641 38.9766 25 46.5531 25H53.4469C61.0234 25 67.1875 31.1641 67.1875 38.7406C67.1875 39.8594 67.05 40.9828 66.7781 42.0734L66.2547 44.1672C65.5703 43.9094 64.8359 43.75 64.0625 43.75H63.9547L64.0172 42.8734C65.0203 41.6844 65.625 40.1484 65.625 38.4734V37.5H62.5V38.4734C62.5 40.5219 60.8344 42.1875 58.7859 42.1875C57.6516 42.1875 56.5953 41.6797 55.8875 40.7922L54.0359 38.4797C51.9484 35.8719 48.8359 34.375 45.4937 34.375H45.3125C42.9594 34.375 40.6797 35.0656 38.7203 36.3703C36.9781 37.5328 35.9375 39.4766 35.9375 41.5703ZM39.8406 53.0406L39.0766 42.3187C39.0672 42.1922 39.0625 42.0656 39.0625 41.9391V41.5703C39.0625 40.5234 39.5828 39.5516 40.4547 38.9703C41.8969 38.0094 43.5781 37.5 45.3125 37.5H45.4937C47.8797 37.5 50.1031 38.5688 51.5938 40.4328L53.4453 42.7453C54.75 44.3766 56.6969 45.3125 58.7859 45.3125C59.4609 45.3125 60.1141 45.2141 60.7297 45.0312L60.1594 53.0406C59.7797 58.3453 55.3172 62.5 50 62.5C44.6828 62.5 40.2203 58.3453 39.8406 53.0406ZM50 65.625C51.45 65.625 52.8469 65.3766 54.1609 64.9391L55.85 68.3187L50 72.9984L44.15 68.3187L45.8391 64.9391C47.1531 65.3766 48.55 65.625 50 65.625ZM56.25 72.0016V74.9937C55.4719 74.5562 54.6437 74.2266 53.7891 73.9703L56.25 72.0016ZM4.6875 48.7469C4.6875 47.7156 5.52656 46.875 6.55937 46.875H10.0219L12.3953 44.5016C12.8797 44.0172 13.525 43.75 14.2109 43.75C15.3172 43.75 16.2969 44.4562 16.6484 45.5047L16.925 46.3344L10.5312 51.45L6.19375 50.5828C5.32031 50.4078 4.6875 49.6359 4.6875 48.7469ZM65.625 75.9469V95.3125H34.375V75.9469L13.2313 53.2922L18.6719 48.9391L40.625 69.4297V81.8984L43.2922 79.2297C45.0125 77.5094 47.2984 76.5625 49.7312 76.5625H50.2688C52.7016 76.5625 54.9891 77.5094 56.7078 79.2297L59.375 81.8984V69.4297L81.3281 48.9391L86.7688 53.2922L65.625 75.9469ZM93.8078 50.5828L89.4703 51.45L83.0766 46.3344L83.3531 45.5063C83.7031 44.4563 84.6828 43.75 85.7891 43.75C86.4734 43.75 87.1203 44.0172 87.6047 44.5016L89.9781 46.875H93.4406C94.4734 46.875 95.3125 47.7156 95.3125 48.7469C95.3125 49.6359 94.6797 50.4078 93.8078 50.5828Z" fill="black"/>
</svg>
