<svg width="100" height="100" viewBox="0 0 100 100" fill="none" xmlns="http://www.w3.org/2000/svg">
<g clip-path="url(#clip0)">
<path d="M100 50C100 57.3959 98.394 64.4165 95.5124 70.7329C90.5861 81.5308 81.9305 90.2672 71.1937 95.3003C69.249 96.2105 67.2348 97.0001 65.1611 97.657C62.8288 98.4024 60.4225 98.9754 57.9529 99.369C57.943 99.3713 57.9308 99.3736 57.9201 99.3736C56.7085 99.5674 55.4855 99.7162 54.2473 99.8207C53.9833 99.8428 53.7186 99.8634 53.4531 99.8817C53.0792 99.9062 52.7039 99.9283 52.3262 99.9451C51.5549 99.9817 50.7797 100 50 100C49.1997 100 48.4062 99.9817 47.6166 99.9428C47.2595 99.9268 46.9017 99.9062 46.5446 99.8795C46.2776 99.8611 46.0121 99.8428 45.7466 99.8207C44.4794 99.7147 43.2243 99.559 41.9861 99.3591C41.394 99.263 40.8043 99.1592 40.2206 99.0425C37.6877 98.5405 35.2264 97.8493 32.8491 96.9795C31.4713 96.4775 30.1224 95.916 28.804 95.298C28.3554 95.0874 27.9083 94.8692 27.4651 94.6426C26.3268 94.0674 25.2144 93.4486 24.1287 92.7895C18.6897 89.4958 13.9305 85.1936 10.1059 80.143C7.81021 77.1103 5.85327 73.8083 4.29001 70.2896C1.53275 64.09 0 57.2243 0 50C0 22.3854 22.3854 0 50 0C77.6146 0 100 22.3854 100 50Z" fill="#FFE152"/>
<path d="M40.2207 64.8858V99.0426C37.6877 98.5406 35.2265 97.8494 32.8492 96.9796C31.4713 96.4776 30.1224 95.9161 28.804 95.2981C28.3554 95.0875 27.9084 94.8693 27.4651 94.6427C26.3268 94.0675 25.2144 93.4487 24.1288 92.7896C18.6898 89.4959 13.9305 85.1937 10.1059 80.1431C7.81024 77.1104 5.8533 73.8084 4.29004 70.2897V64.8858C4.29004 58.6167 8.54724 53.341 14.3288 51.7961C14.5409 51.7388 14.753 51.6854 14.9697 51.6412C15.5426 51.5145 16.1324 51.4283 16.7328 51.3795C17.0983 51.3513 17.4675 51.3345 17.8406 51.3345H26.6671C27.6528 51.3345 28.6141 51.439 29.541 51.6412C29.5937 51.6511 29.6471 51.6633 29.6997 51.6755C29.8554 51.7106 30.0125 51.7487 30.1651 51.7899C30.1697 51.7922 30.1735 51.7922 30.1773 51.7938C31.704 52.2019 33.1223 52.8695 34.3857 53.7469C37.912 56.1936 40.2207 60.2693 40.2207 64.8858Z" fill="#2BA1CF"/>
<path d="M40.2207 64.8858V99.0426C37.6877 98.5406 35.2265 97.8494 32.8492 96.9796C31.4713 96.4776 30.1224 95.9161 28.8041 95.2981C28.3555 95.0875 27.9084 94.8693 27.4651 94.6427C26.3268 94.0675 25.2144 93.4487 24.1288 92.7896C18.6898 89.4959 13.9306 85.1937 10.106 80.1431V64.8858C10.106 58.6167 14.3632 53.341 20.1447 51.7961C20.3576 51.7388 20.5697 51.6854 20.7856 51.6412C21.3593 51.5145 21.9491 51.4283 22.5487 51.3795C22.9142 51.3513 23.2834 51.3345 23.6573 51.3345H26.6671C27.6528 51.3345 28.6141 51.439 29.5411 51.6412C29.5937 51.6511 29.6471 51.6633 29.6998 51.6755C29.8554 51.7106 30.0126 51.7487 30.1652 51.7899C30.1697 51.7922 30.1736 51.7922 30.1774 51.7938C31.704 52.2019 33.1223 52.8695 34.3857 53.7469C37.912 56.1936 40.2207 60.2693 40.2207 64.8858Z" fill="#66BAED"/>
<path d="M30.2109 51.6401L30.1788 51.7935L26.1246 70.6495C25.7355 72.4615 24.1409 73.7753 22.2885 73.7768C22.2771 73.7768 22.2664 73.7768 22.2557 73.7768C22.2435 73.7768 22.2321 73.7768 22.2198 73.7768C20.3667 73.7753 18.7729 72.4615 18.3838 70.6495L14.3295 51.795L14.2975 51.6401H30.2109Z" fill="#F2F0EC"/>
<path d="M22.2542 56.8827L16.153 60.2732L14.2975 51.6406L18.0885 49.4082" fill="#D8D5D0"/>
<path d="M22.2542 56.8827L28.3554 60.2732L30.2108 51.6406L26.4198 49.4082" fill="#D8D5D0"/>
<path d="M4.03821 48.0685V27.6308C4.03821 25.5541 4.38458 23.5193 5.06818 21.583C7.62631 14.3046 14.5332 9.4126 22.2549 9.4126C23.2116 9.4126 24.1661 9.4866 25.0938 9.63309C29.3358 10.2961 33.2283 12.4613 36.0504 15.7305C38.9023 19.0348 40.4731 23.2607 40.4731 27.6308V48.0685" fill="#CC7A3B"/>
<path d="M11.5318 28.4288C11.5318 35.6577 15.7654 44.021 18.0901 48.0684H4.03748V27.6308C4.03748 25.5548 4.38461 23.5201 5.06744 21.5829C7.61032 14.3465 14.4539 9.46899 22.1222 9.41406C16.5215 9.55368 11.5318 18.5396 11.5318 28.4288Z" fill="#A35418"/>
<path d="M27.0904 46.1143V52.0484C27.0904 54.2205 25.6584 56.0569 23.6854 56.6665C23.2337 56.8069 22.7523 56.8824 22.2549 56.8824C19.5846 56.8824 17.4209 54.7187 17.4209 52.0484V46.1143H27.0904Z" fill="#EAB599"/>
<path d="M27.0904 51.6724V52.0485C27.0904 54.2206 25.6584 56.057 23.6854 56.6666C21.9055 56.1195 20.5673 54.5715 20.3201 52.6779C20.6428 52.6978 20.9678 52.7077 21.2936 52.7077C22.2083 52.7077 23.1056 52.6352 23.9784 52.4918C25.0549 52.3186 26.0955 52.0416 27.0904 51.6724Z" fill="#F6CAAE"/>
<path d="M8.99277 36.39C8.99277 38.6285 7.35779 40.4847 5.21622 40.8288C4.98276 40.867 4.74167 40.8868 4.496 40.8868C2.01263 40.8868 0 38.8742 0 36.39C0 33.9067 2.01263 31.894 4.496 31.894C4.74167 31.894 4.98276 31.9139 5.21622 31.952C7.35779 32.2961 8.99277 34.1516 8.99277 36.39Z" fill="#F6CAAE"/>
<path d="M8.9928 36.3902C8.9928 38.6286 7.35782 40.4849 5.21625 40.8289C4.82791 39.4152 4.61963 37.9267 4.61963 36.3902C4.61963 34.8544 4.82791 33.3659 5.21625 31.9521C7.35782 32.2962 8.9928 34.1517 8.9928 36.3902Z" fill="#EAB599"/>
<path d="M6.10355 36.39C6.10355 37.278 5.38409 37.9975 4.49603 37.9975C3.60873 37.9975 2.88928 37.278 2.88928 36.39C2.88928 35.5027 3.60873 34.7832 4.49603 34.7832C5.38409 34.7832 6.10355 35.5027 6.10355 36.39Z" fill="#EAB599"/>
<path d="M33.8005 30.6487V46.1043C31.4117 48.3848 28.3485 49.9641 24.9405 50.5134C24.9138 50.5179 24.8848 50.5225 24.8581 50.5271C24.0112 50.6621 23.1422 50.7293 22.2549 50.7293C13.0165 50.7293 5.52673 43.2395 5.52673 34.0011V27.6305C5.52673 26.8149 5.58472 26.0123 5.69763 25.228C9.67789 28.0906 15.3847 27.8075 19.0208 24.3712C20.2248 23.2337 21.0617 21.8795 21.5347 20.4429C21.7979 22.9583 22.9485 25.4066 24.9878 27.3345C27.4155 29.6264 30.6229 30.7319 33.8005 30.6487Z" fill="#EAB599"/>
<path d="M33.8005 30.6487V46.1043C31.4117 48.3848 28.3485 49.9641 24.9405 50.5134C24.9138 50.5179 24.8848 50.5225 24.8581 50.5271C16.8564 49.2766 10.7361 42.3522 10.7361 34.0011V27.6305C10.7361 27.4612 10.7391 27.2925 10.7452 27.1247C13.6948 27.4268 16.7587 26.5098 19.0208 24.3705C20.2248 23.2337 21.0617 21.8787 21.5347 20.4429C21.7979 22.9583 22.9485 25.4066 24.9878 27.3345C27.4155 29.6264 30.6229 30.7319 33.8005 30.6487Z" fill="#F6CAAE"/>
<path d="M31.2401 32.5882C31.2401 31.0532 29.9958 29.8096 28.4615 29.8096C26.9272 29.8096 25.6829 31.0532 25.6829 32.5882" fill="#EAB599"/>
<path d="M18.8302 32.5882C18.8302 31.0532 17.5858 29.8096 16.0515 29.8096C14.5173 29.8096 13.2737 31.0532 13.2737 32.5882" fill="#EAB599"/>
<path d="M17.9497 33.771C17.9497 34.8192 17.0998 35.6692 16.0515 35.6692C15.0032 35.6692 14.1541 34.8192 14.1541 33.771C14.1541 32.7227 15.0032 31.8735 16.0515 31.8735C17.0998 31.8735 17.9497 32.7227 17.9497 33.771Z" fill="#3D4159"/>
<path d="M30.3588 33.771C30.3588 34.8192 29.5097 35.6692 28.4614 35.6692C27.4131 35.6692 26.564 34.8192 26.564 33.771C26.564 32.7227 27.4131 31.8735 28.4614 31.8735C29.5097 31.8735 30.3588 32.7227 30.3588 33.771Z" fill="#3D4159"/>
<path d="M24.1547 38.5489H20.359C19.9066 38.5489 19.5404 38.1819 19.5404 37.7303C19.5404 37.2786 19.9066 36.9116 20.359 36.9116H24.1547C24.6063 36.9116 24.9725 37.2786 24.9725 37.7303C24.9725 38.1819 24.6063 38.5489 24.1547 38.5489Z" fill="#EAB599"/>
<path d="M22.2565 43.7286C20.8557 43.7286 19.455 43.3777 18.1778 42.675C17.8177 42.4774 17.6865 42.025 17.8841 41.6649C18.0825 41.3047 18.5349 41.1735 18.895 41.3711C20.9999 42.5285 23.5131 42.5285 25.618 41.3711C25.9781 41.1728 26.4305 41.3047 26.6289 41.6649C26.8265 42.025 26.6953 42.4774 26.3352 42.675C25.058 43.3777 23.6573 43.7286 22.2565 43.7286Z" fill="#EAB599"/>
<path d="M17.5629 33.4359C17.5629 33.8852 17.1982 34.2491 16.7496 34.2491C16.3002 34.2491 15.9363 33.8852 15.9363 33.4359C15.9363 32.9865 16.3002 32.6226 16.7496 32.6226C17.1982 32.6226 17.5629 32.9865 17.5629 33.4359Z" fill="white"/>
<path d="M30.0652 33.4359C30.0652 33.8852 29.7012 34.2491 29.2526 34.2491C28.8033 34.2491 28.4393 33.8852 28.4393 33.4359C28.4393 32.9865 28.8033 32.6226 29.2526 32.6226C29.7012 32.6226 30.0652 32.9865 30.0652 33.4359Z" fill="white"/>
<path d="M33.6425 38.3934C33.6425 39.5439 32.7095 40.477 31.5582 40.477C30.4077 40.477 29.4746 39.5439 29.4746 38.3934C29.4746 37.2422 30.4077 36.3091 31.5582 36.3091C32.7095 36.3091 33.6425 37.2422 33.6425 38.3934Z" fill="#EAB599"/>
<path d="M15.0368 38.3934C15.0368 39.5439 14.1045 40.477 12.9532 40.477C11.8027 40.477 10.8696 39.5439 10.8696 38.3934C10.8696 37.2422 11.8027 36.3091 12.9532 36.3091C14.1045 36.3091 15.0368 37.2422 15.0368 38.3934Z" fill="#EAB599"/>
<path d="M95.5124 64.4738V70.7329C90.5861 81.5308 81.9305 90.2672 71.1937 95.3003C69.2489 96.2105 67.2348 97.0002 65.1611 97.657C62.8288 98.4024 60.4225 98.9754 57.9529 99.3691C57.9429 99.3714 57.9307 99.3737 57.92 99.3737V64.4738C57.92 57.0351 63.649 50.9323 70.9388 50.3449C71.3226 50.3121 71.7079 50.2983 72.0977 50.2983H81.3308C82.4226 50.2983 83.4854 50.4181 84.5062 50.6531C90.8081 52.0935 95.5124 57.737 95.5124 64.4738Z" fill="#BFD5DE"/>
<path d="M95.5124 64.4738V70.7329C90.5861 81.5308 81.9305 90.2672 71.1937 95.3003C69.249 96.2105 67.2348 97.0002 65.1611 97.657V64.4738C65.1611 56.6452 71.5103 50.2983 79.3411 50.2983H81.3324C89.1655 50.2983 95.5124 56.6452 95.5124 64.4738Z" fill="#DDE8ED"/>
<path d="M62.8387 34.6613C62.8387 37.0035 61.1282 38.9452 58.8882 39.3053C58.6433 39.345 58.3916 39.3656 58.1345 39.3656C55.5359 39.3656 53.4302 37.2599 53.4302 34.6613C53.4302 32.0627 55.5359 29.957 58.1345 29.957C58.3916 29.957 58.6433 29.9776 58.8882 30.0173C61.1282 30.3782 62.8387 32.3199 62.8387 34.6613Z" fill="#D3A489"/>
<path d="M80.5222 55.4121L76.7159 61.5172L72.9095 55.4121" fill="#F74F4F"/>
<path d="M81.8367 78.7626L76.7159 85.2247L71.5942 78.7626L76.7166 59.9287L81.8367 78.7626Z" fill="#F74F4F"/>
<path d="M62.8387 34.6611C62.8387 37.0033 61.1282 38.945 58.8882 39.3051C58.4816 37.8258 58.2642 36.2686 58.2642 34.6611C58.2642 33.0544 58.4816 31.4972 58.8882 30.0171C61.1282 30.378 62.8387 32.3196 62.8387 34.6611Z" fill="#BF8E75"/>
<path d="M59.816 34.6612C59.816 35.5897 59.063 36.3427 58.1345 36.3427C57.206 36.3427 56.4537 35.5897 56.4537 34.6612C56.4537 33.7327 57.206 32.9805 58.1345 32.9805C59.063 32.9805 59.816 33.7327 59.816 34.6612Z" fill="#BF8E75"/>
<path d="M76.7143 56.1012L70.3316 59.6488L68.3899 50.6164L72.3557 48.2803" fill="#BFD5DE"/>
<path d="M76.7144 56.1012L83.0979 59.6488L85.0396 50.6164L81.073 48.2803" fill="#BFD5DE"/>
<path d="M90.5914 34.6613C90.5914 37.0035 92.3019 38.9452 94.5419 39.3053C94.7868 39.345 95.0386 39.3656 95.2957 39.3656C97.8943 39.3656 100 37.2599 100 34.6613C100 32.0627 97.8943 29.957 95.2957 29.957C95.0386 29.957 94.7868 29.9776 94.5419 30.0173C92.3019 30.3782 90.5914 32.3199 90.5914 34.6613Z" fill="#D3A489"/>
<path d="M90.5914 34.6611C90.5914 37.0033 92.3019 38.945 94.5419 39.3051C94.9493 37.8258 95.166 36.2686 95.166 34.6611C95.166 33.0544 94.9493 31.4972 94.5419 30.0171C92.3019 30.378 90.5914 32.3196 90.5914 34.6611Z" fill="#BF8E75"/>
<path d="M96.9773 34.6612C96.9773 35.5897 96.2243 36.3427 95.2958 36.3427C94.3673 36.3427 93.6143 35.5897 93.6143 34.6612C93.6143 33.7327 94.3673 32.9805 95.2958 32.9805C96.2243 32.9805 96.9773 33.7327 96.9773 34.6612Z" fill="#BF8E75"/>
<path d="M94.2185 32.1609C94.2185 40.8706 87.8556 48.0964 79.5243 49.4376C78.611 49.5879 77.6726 49.6635 76.7151 49.6635C67.0479 49.6635 59.2125 41.8281 59.2125 32.1609C59.2125 27.587 60.801 20.7206 63.6734 17.6025C66.8717 14.1303 71.6217 14.6575 76.7151 14.6575C77.6726 14.6575 78.6103 14.7338 79.5243 14.8841C87.8556 16.2254 94.2185 23.4504 94.2185 32.1609Z" fill="#BF8E75"/>
<path d="M81.7742 44.8354V51.0435C81.7742 53.3163 80.2758 55.2374 78.2113 55.8752C77.739 56.0217 77.2355 56.101 76.7144 56.101C73.9213 56.101 71.6569 53.8366 71.6569 51.0435V44.8354H81.7742Z" fill="#BF8E75"/>
<path d="M81.7741 50.6499V51.0436C81.7741 53.3164 80.2757 55.2375 78.2112 55.8753C76.3488 55.3031 74.9488 53.6833 74.6902 51.702C75.0282 51.7226 75.3677 51.7333 75.7095 51.7333C76.6662 51.7333 77.6046 51.657 78.5186 51.5074C79.6447 51.3259 80.7327 51.0367 81.7741 50.6499Z" fill="#D3A489"/>
<path d="M94.2185 32.1608C94.2185 40.8705 87.8556 48.0963 79.5243 49.4376C71.1937 48.0963 64.8308 40.8705 64.8308 32.1608C64.8308 26.7974 67.2432 21.9969 71.0434 18.7857C73.4131 16.7823 76.3237 15.399 79.5243 14.8833C87.291 16.1338 93.3495 22.5005 94.1323 30.4152C94.1895 30.9897 94.2185 31.5726 94.2185 32.1608Z" fill="#D3A489"/>
<path d="M76.7159 40.7813C75.2495 40.7813 73.7846 40.4143 72.4487 39.6796C72.0711 39.4729 71.9338 38.9991 72.1413 38.6222C72.348 38.2453 72.8218 38.108 73.1987 38.3155C75.4006 39.5255 78.0304 39.5255 80.233 38.3155C80.6091 38.108 81.0829 38.2453 81.2897 38.6222C81.4972 38.9991 81.3599 39.4729 80.983 39.6796C79.6471 40.4143 78.1807 40.7813 76.7159 40.7813Z" fill="#BF8E75"/>
<path d="M72.9882 31.1422C72.9882 32.2385 72.0994 33.1273 71.0023 33.1273C69.9059 33.1273 69.0171 32.2385 69.0171 31.1422C69.0171 30.0451 69.9059 29.1562 71.0023 29.1562C72.0994 29.1562 72.9882 30.0451 72.9882 31.1422Z" fill="#3D4159"/>
<path d="M84.414 31.1422C84.414 32.2385 83.5251 33.1273 82.4288 33.1273C81.3317 33.1273 80.4429 32.2385 80.4429 31.1422C80.4429 30.0451 81.3317 29.1562 82.4288 29.1562C83.5251 29.1562 84.414 30.0451 84.414 31.1422Z" fill="#3D4159"/>
<path d="M72.5829 30.7916C72.5829 31.2616 72.2022 31.643 71.7323 31.643C71.2623 31.643 70.8816 31.2616 70.8816 30.7916C70.8816 30.3224 71.2623 29.9409 71.7323 29.9409C72.2022 29.9409 72.5829 30.3224 72.5829 30.7916Z" fill="white"/>
<path d="M84.1064 30.7916C84.1064 31.2616 83.7257 31.643 83.2557 31.643C82.7857 31.643 82.405 31.2616 82.405 30.7916C82.405 30.3224 82.7857 29.9409 83.2557 29.9409C83.7257 29.9409 84.1064 30.3224 84.1064 30.7916Z" fill="white"/>
<path d="M78.701 36.141H74.7299C74.2569 36.141 73.8732 35.7573 73.8732 35.2842C73.8732 34.8112 74.2569 34.4282 74.7299 34.4282H78.701C79.1741 34.4282 79.5578 34.8112 79.5578 35.2842C79.5571 35.7573 79.1741 36.141 78.701 36.141Z" fill="#BF8E75"/>
<path d="M82.4783 64.0093H90.1084V66.3446H82.4783V64.0093Z" fill="#BFD5DE"/>
<path d="M75.6912 9.65791C80.9936 10.0363 85.2508 14.3195 85.5201 19.7112L85.5705 20.7236H88.6207L90.2633 31.6474L94.242 30.416L93.708 19.7119C93.4257 14.0479 88.7412 9.60909 83.0726 9.63045L75.6912 9.65791Z" fill="#2A2F4F"/>
<path d="M93.3709 5.43311C97.593 9.65521 97.593 16.5011 93.3709 20.7232C89.1488 24.9453 82.3029 24.9453 78.0808 20.7232L93.3709 5.43311Z" fill="#3D4159"/>
<path d="M78.0807 20.7231H64.8117L63.1683 31.6476L59.1896 30.4162L59.7229 19.7114C60.0052 14.0489 64.6896 9.6086 70.359 9.62996L89.5233 9.70244L92.057 14.2625" fill="#3D4159"/>
<path d="M77.7397 9.65791C72.4373 10.0363 68.1801 14.3195 67.9108 19.7112L67.8604 20.7236H64.8109L63.1676 31.6474L59.1888 30.416L59.7229 19.7119C60.0052 14.0479 64.6896 9.60909 70.3583 9.63045L77.7397 9.65791Z" fill="#2A2F4F"/>
<path d="M71.1936 91.5511V95.3002C64.759 98.3146 57.5775 99.9999 49.9999 99.9999C42.4224 99.9999 35.2386 98.3146 28.804 95.2979V91.5511C28.804 84.1529 33.8264 77.9304 40.6486 76.1062C40.8981 76.0391 41.1491 75.9773 41.4039 75.9223C42.0814 75.7751 42.7772 75.6736 43.4837 75.6164C43.9163 75.5813 44.3511 75.563 44.7921 75.563H55.2039C56.369 75.563 57.5019 75.6858 58.596 75.9223C58.6593 75.9345 58.7226 75.949 58.7837 75.9635C58.9675 76.0063 59.1506 76.0513 59.3322 76.1001C59.3391 76.1016 59.3406 76.1016 59.3467 76.1039C61.1472 76.5853 62.8227 77.3734 64.3104 78.408C68.4715 81.2942 71.1936 86.1038 71.1936 91.5511Z" fill="#3D4159"/>
<path d="M59.3857 75.9224L59.3467 76.1039L54.2473 99.8207C53.9833 99.8428 53.7185 99.8634 53.453 99.8817C53.0792 99.9061 52.7038 99.9283 52.3262 99.945C51.5548 99.9817 50.7797 100 50 100C49.1996 100 48.4062 99.9817 47.6165 99.9427C47.2595 99.9267 46.9017 99.9061 46.5446 99.8794C46.2776 99.8611 46.0121 99.8428 45.7466 99.8207L40.6486 76.1062L40.6105 75.9224H59.3857Z" fill="#66BAED"/>
<path d="M54.2907 81.3325L49.9984 88.2158L45.7069 81.3325" fill="#3D4159"/>
<path d="M53.4531 99.8818C53.0793 99.9062 52.7039 99.9283 52.3262 99.9451C51.5549 99.9818 50.7798 100 50 100C49.1997 100 48.4063 99.9818 47.6166 99.9428C47.2596 99.9268 46.9017 99.9062 46.5447 99.8795L50 86.4243L53.4531 99.8818Z" fill="#3D4159"/>
<path d="M49.9977 82.1084L42.7994 86.1085L40.6097 75.924L45.0821 73.2896" fill="#2BA1CF"/>
<path d="M49.9977 82.1084L57.1953 86.1085L59.3849 75.924L54.9125 73.2896" fill="#2BA1CF"/>
<path d="M59.6573 89.6675H61.9407L57.9529 99.369C56.1081 99.665 54.2305 99.8588 52.3262 99.945L59.3322 76.1001L59.3857 75.9224L64.3104 77.5306L59.6573 89.6675Z" fill="#2A2F4F"/>
<path d="M47.6166 99.9427C45.7101 99.855 43.8309 99.6574 41.9861 99.3591L38.0021 89.6675H40.2856L35.6309 77.5306L40.5572 75.9224L40.6106 76.1001L47.6166 99.9427Z" fill="#2A2F4F"/>
<path d="M55.7029 69.4048V76.4048C55.7029 78.9682 54.013 81.1342 51.6853 81.8537C51.152 82.0192 50.5844 82.1085 49.9969 82.1085C46.8467 82.1085 44.2939 79.5549 44.2939 76.4048V69.4048H55.7029Z" fill="#EAB599"/>
<path d="M55.703 75.9614V76.4055C55.703 78.9682 54.0131 81.1342 51.6853 81.8544C49.585 81.2082 48.0057 79.3824 47.7142 77.1478C48.0957 77.1714 48.4787 77.1829 48.8632 77.1829C49.9428 77.1829 51.001 77.0974 52.0309 76.9288C53.3012 76.7244 54.528 76.3971 55.703 75.9614Z" fill="#F6CAAE"/>
<path d="M34.3506 57.9315C34.3506 60.572 32.4211 62.7616 29.895 63.1683C29.6188 63.2125 29.335 63.2362 29.0458 63.2362C26.1154 63.2362 23.7404 60.8619 23.7404 57.9315C23.7404 55.001 26.1146 52.626 29.0458 52.626C29.335 52.626 29.6188 52.6496 29.895 52.6946C32.4211 53.1013 34.3506 55.2909 34.3506 57.9315Z" fill="#F6CAAE"/>
<path d="M34.3506 57.9316C34.3506 60.5722 32.4212 62.7618 29.8951 63.1685C29.4366 61.4999 29.1917 59.7436 29.1917 57.9316C29.1917 56.1189 29.4366 54.3634 29.8951 52.6948C32.4212 53.1015 34.3506 55.2911 34.3506 57.9316Z" fill="#EAB599"/>
<path d="M30.9417 57.9315C30.9417 58.9783 30.0926 59.8275 29.0458 59.8275C27.9983 59.8275 27.1499 58.9783 27.1499 57.9315C27.1499 56.884 27.9983 56.0356 29.0458 56.0356C30.0926 56.0356 30.9417 56.884 30.9417 57.9315Z" fill="#EAB599"/>
<path d="M65.6456 57.9315C65.6456 60.572 67.5751 62.7616 70.1012 63.1683C70.3766 63.2125 70.6612 63.2362 70.9503 63.2362C73.8808 63.2362 76.2558 60.8619 76.2558 57.9315C76.2558 55.001 73.8816 52.626 70.9503 52.626C70.6612 52.626 70.3766 52.6496 70.1012 52.6946C67.5751 53.1013 65.6456 55.2909 65.6456 57.9315Z" fill="#F6CAAE"/>
<path d="M65.6456 57.9316C65.6456 60.5722 67.5751 62.7618 70.1012 63.1685C70.5597 61.4999 70.8046 59.7436 70.8046 57.9316C70.8046 56.1189 70.5597 54.3634 70.1012 52.6948C67.5751 53.1015 65.6456 55.2911 65.6456 57.9316Z" fill="#EAB599"/>
<path d="M69.7357 47.5969V55.1126C69.7357 64.9347 62.5602 73.0821 53.1654 74.5943C53.1341 74.5996 53.1006 74.6049 53.0693 74.6103C52.0698 74.7705 51.0444 74.8491 49.9977 74.8491C39.0976 74.8491 30.262 66.0127 30.262 55.1134V47.5969C30.262 45.302 30.6534 43.0963 31.3766 41.0471C34.0759 33.3658 41.3948 27.8589 49.9977 27.8589H49.9992C51.0444 27.8589 52.0714 27.9398 53.0723 28.0977C62.5129 29.5724 69.7357 37.742 69.7357 47.5969Z" fill="#EAB599"/>
<path d="M72.8463 57.9315C72.8463 58.9783 71.9979 59.8275 70.9503 59.8275C69.9036 59.8275 69.0544 58.9783 69.0544 57.9315C69.0544 56.884 69.9036 56.0356 70.9503 56.0356C71.9979 56.0356 72.8463 56.884 72.8463 57.9315Z" fill="#EAB599"/>
<path d="M69.735 47.5969V55.1126C69.735 64.9339 62.5603 73.0821 53.1654 74.5942C53.1334 74.5996 53.1006 74.6049 53.0685 74.6103C43.6287 73.1347 36.4075 64.9659 36.4075 55.1126V47.5969C36.4075 37.742 43.6302 29.5724 53.0724 28.0977C62.513 29.5724 69.735 37.742 69.735 47.5969Z" fill="#F6CAAE"/>
<path d="M45.7947 53.9626C45.7947 55.1993 44.7922 56.2018 43.5562 56.2018C42.3195 56.2018 41.317 55.1993 41.317 53.9626C41.317 52.7266 42.3195 51.7241 43.5562 51.7241C44.7922 51.7241 45.7947 52.7266 45.7947 53.9626Z" fill="#3D4159"/>
<path d="M58.68 53.9626C58.68 55.1993 57.6775 56.2018 56.4408 56.2018C55.204 56.2018 54.2015 55.1993 54.2015 53.9626C54.2015 52.7266 55.204 51.7241 56.4408 51.7241C57.6775 51.7241 58.68 52.7266 58.68 53.9626Z" fill="#3D4159"/>
<path d="M45.3385 53.5682C45.3385 54.0977 44.9089 54.5272 44.3787 54.5272C43.8492 54.5272 43.4197 54.0977 43.4197 53.5682C43.4197 53.0379 43.8492 52.6084 44.3787 52.6084C44.9089 52.6084 45.3385 53.0379 45.3385 53.5682Z" fill="white"/>
<path d="M58.3329 53.5682C58.3329 54.0977 57.9033 54.5272 57.3738 54.5272C56.8436 54.5272 56.4141 54.0977 56.4141 53.5682C56.4141 53.0379 56.8436 52.6084 57.3738 52.6084C57.9033 52.6084 58.3329 53.0379 58.3329 53.5682Z" fill="white"/>
<path d="M52.2377 58.7228H47.7592C47.2259 58.7228 46.7933 58.2902 46.7933 57.7569C46.7933 57.2228 47.2259 56.791 47.7592 56.791H52.2377C52.771 56.791 53.2036 57.2228 53.2036 57.7569C53.2028 58.2902 52.7702 58.7228 52.2377 58.7228Z" fill="#EAB599"/>
<path d="M49.9985 64.8332C48.346 64.8332 46.6927 64.419 45.1866 63.5904C44.7617 63.357 44.606 62.8229 44.8403 62.3987C45.0737 61.9737 45.6078 61.8189 46.0327 62.0516C48.5161 63.4172 51.4809 63.4172 53.9643 62.0516C54.3892 61.8181 54.9233 61.973 55.1567 62.3987C55.391 62.8229 55.2353 63.357 54.8104 63.5904C53.3036 64.419 51.651 64.8332 49.9985 64.8332Z" fill="#EAB599"/>
<path d="M69.7357 40.776V48.4749H66.0622V42.4453L39.5454 37.5183L33.9348 36.4753V48.4749H30.2612V40.7753C30.2612 31.9984 37.3749 24.8848 46.1502 24.8848H53.8467C54.0558 24.8848 54.2648 24.8886 54.4739 24.8993C62.957 25.2258 69.7357 32.2082 69.7357 40.776Z" fill="#2A2F4F"/>
<path d="M69.7357 40.7762V48.475H66.0621V42.4455L39.5454 37.5184C41.0064 30.5009 47.0947 25.184 54.4738 24.8994C62.957 25.226 69.7357 32.2084 69.7357 40.7762Z" fill="#3D4159"/>
</g>
<defs>
<clipPath id="clip0">
<rect width="100" height="100" fill="white"/>
</clipPath>
</defs>
</svg>
